# Wavefront OBJ file automatically generated by Tiled2Unity

# Vertices (Count = 176)
v 0 -0.32 0
v -0.32 -0.32 0
v -0.32 0 0
v 0 0 0
v -0.64 -0.32 0
v -0.64 0 0
v -0.96 -0.32 0
v -0.96 0 0
v -1.28 -0.32 0
v -1.28 0 0
v -1.6 -0.32 0
v -1.6 0 0
v -1.92 -0.32 0
v -1.92 0 0
v -2.24 -0.32 0
v -2.24 0 0
v -2.56 -0.32 0
v -2.56 0 0
v -2.88 -0.32 0
v -2.88 0 0
v -3.2 -0.32 0
v -3.2 0 0
v -3.52 -0.32 0
v -3.52 0 0
v -3.84 -0.32 0
v -3.84 0 0
v -4.16 -0.32 0
v -4.16 0 0
v -4.48 -0.32 0
v -4.48 0 0
v -4.8 -0.32 0
v -4.8 0 0
v 0 -0.64 0
v -0.32 -0.64 0
v -0.64 -0.64 0
v -0.96 -0.64 0
v -1.28 -0.64 0
v -1.6 -0.64 0
v -1.92 -0.64 0
v -2.24 -0.64 0
v -2.56 -0.64 0
v -2.88 -0.64 0
v -3.2 -0.64 0
v -3.52 -0.64 0
v -3.84 -0.64 0
v -4.16 -0.64 0
v -4.48 -0.64 0
v -4.8 -0.64 0
v 0 -0.96 0
v -0.32 -0.96 0
v -0.64 -0.96 0
v -0.96 -0.96 0
v -1.28 -0.96 0
v -1.6 -0.96 0
v -1.92 -0.96 0
v -2.24 -0.96 0
v -2.56 -0.96 0
v -2.88 -0.96 0
v -3.2 -0.96 0
v -3.52 -0.96 0
v -3.84 -0.96 0
v -4.16 -0.96 0
v -4.48 -0.96 0
v -4.8 -0.96 0
v 0 -1.28 0
v -0.32 -1.28 0
v -0.64 -1.28 0
v -0.96 -1.28 0
v -1.28 -1.28 0
v -1.6 -1.28 0
v -1.92 -1.28 0
v -2.24 -1.28 0
v -2.56 -1.28 0
v -2.88 -1.28 0
v -3.2 -1.28 0
v -3.52 -1.28 0
v -3.84 -1.28 0
v -4.16 -1.28 0
v -4.48 -1.28 0
v -4.8 -1.28 0
v 0 -1.6 0
v -0.32 -1.6 0
v -0.64 -1.6 0
v -0.96 -1.6 0
v -1.28 -1.6 0
v -1.6 -1.6 0
v -1.92 -1.6 0
v -2.24 -1.6 0
v -2.56 -1.6 0
v -2.88 -1.6 0
v -3.2 -1.6 0
v -3.52 -1.6 0
v -3.84 -1.6 0
v -4.16 -1.6 0
v -4.48 -1.6 0
v -4.8 -1.6 0
v 0 -1.92 0
v -0.32 -1.92 0
v -0.64 -1.92 0
v -0.96 -1.92 0
v -1.28 -1.92 0
v -1.6 -1.92 0
v -1.92 -1.92 0
v -2.24 -1.92 0
v -2.56 -1.92 0
v -2.88 -1.92 0
v -3.2 -1.92 0
v -3.52 -1.92 0
v -3.84 -1.92 0
v -4.16 -1.92 0
v -4.48 -1.92 0
v -4.8 -1.92 0
v 0 -2.24 0
v -0.32 -2.24 0
v -0.64 -2.24 0
v -0.96 -2.24 0
v -1.28 -2.24 0
v -1.6 -2.24 0
v -1.92 -2.24 0
v -2.24 -2.24 0
v -2.56 -2.24 0
v -2.88 -2.24 0
v -3.2 -2.24 0
v -3.52 -2.24 0
v -3.84 -2.24 0
v -4.16 -2.24 0
v -4.48 -2.24 0
v -4.8 -2.24 0
v 0 -2.56 0
v -0.32 -2.56 0
v -0.64 -2.56 0
v -0.96 -2.56 0
v -1.28 -2.56 0
v -1.6 -2.56 0
v -1.92 -2.56 0
v -2.24 -2.56 0
v -2.56 -2.56 0
v -2.88 -2.56 0
v -3.2 -2.56 0
v -3.52 -2.56 0
v -3.84 -2.56 0
v -4.16 -2.56 0
v -4.48 -2.56 0
v -4.8 -2.56 0
v 0 -2.88 0
v -0.32 -2.88 0
v -0.64 -2.88 0
v -0.96 -2.88 0
v -1.28 -2.88 0
v -1.6 -2.88 0
v -1.92 -2.88 0
v -2.24 -2.88 0
v -2.56 -2.88 0
v -2.88 -2.88 0
v -3.2 -2.88 0
v -3.52 -2.88 0
v -3.84 -2.88 0
v -4.16 -2.88 0
v -4.48 -2.88 0
v -4.8 -2.88 0
v 0 -3.2 0
v -0.32 -3.2 0
v -0.64 -3.2 0
v -0.96 -3.2 0
v -1.28 -3.2 0
v -1.6 -3.2 0
v -1.92 -3.2 0
v -2.24 -3.2 0
v -2.56 -3.2 0
v -2.88 -3.2 0
v -3.2 -3.2 0
v -3.52 -3.2 0
v -3.84 -3.2 0
v -4.16 -3.2 0
v -4.48 -3.2 0
v -4.8 -3.2 0

# Texture cooridinates (Count = 228)
vt 0.1250153 0.5000076
vt 0.2499847 0.5000076
vt 0.2499847 0.5624924
vt 0.1250153 0.5624924
vt 0.5000076 0.9375076
vt 0.5624924 0.9375076
vt 0.5624924 0.9999924
vt 0.5000076 0.9999924
vt 0.5000076 0.8125076
vt 0.5624924 0.8125076
vt 0.5624924 0.8749924
vt 0.5000076 0.8749924
vt 0.6875076 0.9375076
vt 0.7499924 0.9375076
vt 0.7499924 0.9999924
vt 0.6875076 0.9999924
vt 0.7500076 0.9375076
vt 0.8124924 0.9375076
vt 0.8124924 0.9999924
vt 0.7500076 0.9999924
vt 0.2500076 0.7500076
vt 0.3124924 0.7500076
vt 0.3124924 0.8124924
vt 0.2500076 0.8124924
vt 0.3125076 0.7500076
vt 0.3749924 0.7500076
vt 0.3749924 0.8124924
vt 0.3125076 0.8124924
vt 0.5625076 0.8125076
vt 0.6249924 0.8125076
vt 0.6249924 0.8749924
vt 0.5625076 0.8749924
vt 0.5625076 0.9375076
vt 0.6249924 0.9375076
vt 0.6249924 0.9999924
vt 0.5625076 0.9999924
vt 0.6250076 0.9375076
vt 0.6874924 0.9375076
vt 0.6874924 0.9999924
vt 0.6250076 0.9999924
vt 0.5000076 0.8750076
vt 0.5624924 0.8750076
vt 0.5624924 0.9374924
vt 0.5000076 0.9374924
vt 0.5000076 0.7500076
vt 0.5624924 0.7500076
vt 0.5624924 0.8124924
vt 0.5000076 0.8124924
vt 0.6875076 0.8750076
vt 0.7499924 0.8750076
vt 0.7499924 0.9374924
vt 0.6875076 0.9374924
vt 0.7500076 0.8750076
vt 0.8124924 0.8750076
vt 0.8124924 0.9374924
vt 0.7500076 0.9374924
vt 0.2500076 0.6875076
vt 0.3124924 0.6875076
vt 0.3124924 0.7499924
vt 0.2500076 0.7499924
vt 0.3125076 0.6875076
vt 0.3749924 0.6875076
vt 0.3749924 0.7499924
vt 0.3125076 0.7499924
vt 0.5625076 0.7500076
vt 0.6249924 0.7500076
vt 0.6249924 0.8124924
vt 0.5625076 0.8124924
vt 0.5625076 0.8750076
vt 0.6249924 0.8750076
vt 0.6249924 0.9374924
vt 0.5625076 0.9374924
vt 0.6250076 0.8750076
vt 0.6874924 0.8750076
vt 0.6874924 0.9374924
vt 0.6250076 0.9374924
vt 0.6875076 0.5000076
vt 0.7499924 0.5000076
vt 0.7499924 0.5624924
vt 0.6875076 0.5624924
vt 0.5000076 0.5625076
vt 0.5624924 0.5625076
vt 0.5624924 0.6249924
vt 0.5000076 0.6249924
vt 0.5625076 0.5625076
vt 0.6249924 0.5625076
vt 0.6249924 0.6249924
vt 0.5625076 0.6249924
vt 0.6250076 0.5000076
vt 0.6874924 0.5000076
vt 0.6874924 0.5624924
vt 0.6250076 0.5624924
vt 0.5000076 0.5000076
vt 0.5624924 0.5000076
vt 0.5624924 0.5624924
vt 0.5000076 0.5624924
vt 0.5625076 0.5000076
vt 0.6249924 0.5000076
vt 0.6249924 0.5624924
vt 0.5625076 0.5624924
vt 0.7500076 0.1875076
vt 0.8124924 0.1875076
vt 0.8124924 0.2499924
vt 0.7500076 0.2499924
vt 0.8125076 0.1875076
vt 0.8749924 0.1875076
vt 0.8749924 0.2499924
vt 0.8125076 0.2499924
vt 0.7500076 0.1250076
vt 0.8124924 0.1250076
vt 0.8124924 0.1874924
vt 0.7500076 0.1874924
vt 0.8125076 0.1250076
vt 0.8749924 0.1250076
vt 0.8749924 0.1874924
vt 0.8125076 0.1874924
vt 0.7500076 0.06250763
vt 0.8124924 0.06250763
vt 0.8124924 0.1249924
vt 0.7500076 0.1249924
vt 0.8125076 0.06250763
vt 0.8749924 0.06250763
vt 0.8749924 0.1249924
vt 0.8125076 0.1249924
vt 0.9375076 0.9999924
vt 0.9375076 0.9375076
vt 0.9999924 0.9375076
vt 0.9999924 0.9999924
vt 0.9375076 0.9374924
vt 0.9375076 0.8750076
vt 0.9999924 0.8750076
vt 0.9999924 0.9374924
vt 0.9375076 0.8749924
vt 0.9375076 0.8125076
vt 0.9999924 0.8125076
vt 0.9999924 0.8749924
vt 0.8750076 0.9999924
vt 0.8750076 0.9375076
vt 0.9374924 0.9375076
vt 0.9374924 0.9999924
vt 0.8750076 0.9374924
vt 0.8750076 0.8750076
vt 0.9374924 0.8750076
vt 0.9374924 0.9374924
vt 0.8750076 0.8749924
vt 0.8750076 0.8125076
vt 0.9374924 0.8125076
vt 0.9374924 0.8749924
vt 0.6250076 0.5625076
vt 0.6874924 0.5625076
vt 0.6874924 0.6249924
vt 0.6250076 0.6249924
vt 0.6875076 0.5625076
vt 0.7499924 0.5625076
vt 0.7499924 0.6249924
vt 0.6875076 0.6249924
vt 0.8125076 0.6875076
vt 0.8749924 0.6875076
vt 0.8749924 0.7499924
vt 0.8125076 0.7499924
vt 0.8749924 0.8750076
vt 0.8749924 0.9374924
vt 0.8125076 0.9374924
vt 0.8125076 0.8750076
vt 0.8749924 0.9375076
vt 0.8749924 0.9999924
vt 0.8125076 0.9999924
vt 0.8125076 0.9375076
vt 0.1250076 0.6250076
vt 0.1874924 0.6250076
vt 0.1874924 0.6874924
vt 0.1250076 0.6874924
vt 0.1874924 0.6875076
vt 0.1874924 0.7499924
vt 0.1250076 0.7499924
vt 0.1250076 0.6875076
vt 0.4999924 0.6250076
vt 0.4999924 0.6874924
vt 0.4375076 0.6874924
vt 0.4375076 0.6250076
vt 0.1250076 0.5625076
vt 0.1874924 0.5625076
vt 0.1874924 0.6249924
vt 0.1250076 0.6249924
vt 0.2499924 0.6875076
vt 0.2499924 0.7499924
vt 0.1875076 0.7499924
vt 0.1875076 0.6875076
vt 0.4999924 0.5625076
vt 0.4999924 0.6249924
vt 0.4375076 0.6249924
vt 0.4375076 0.5625076
vt 0.8124924 0.2500076
vt 0.8124924 0.3124924
vt 0.7500076 0.3124924
vt 0.7500076 0.2500076
vt 0.8124924 0.3125076
vt 0.8124924 0.3749924
vt 0.7500076 0.3749924
vt 0.7500076 0.3125076
vt 0.6875076 0.7500076
vt 0.7499924 0.7500076
vt 0.7499924 0.8124924
vt 0.6875076 0.8124924
vt 0.8749924 0.2500076
vt 0.8749924 0.3124924
vt 0.8125076 0.3124924
vt 0.8125076 0.2500076
vt 0.8749924 0.3125076
vt 0.8749924 0.3749924
vt 0.8125076 0.3749924
vt 0.8125076 0.3125076
vt 0.7500076 0.8125076
vt 0.8124924 0.8125076
vt 0.8124924 0.8749924
vt 0.7500076 0.8749924
vt 0.2500153 0.6875076
vt 0.3749847 0.6875076
vt 0.3749847 0.7499924
vt 0.2500153 0.7499924
vt 0.3750153 0.6875076
vt 0.4999847 0.6875076
vt 0.4999847 0.7499924
vt 0.3750153 0.7499924
vt 6.103516E-05 0.0001220703
vt 0.499939 0.0001220703
vt 0.499939 0.9998779
vt 6.103516E-05 0.9998779

# Normal
vn 0 0 -1

# Groups (Count = 5)

g mesh_0001
f 1/1/1 2/2/1 3/3/1 4/4/1
f 2/1/1 5/2/1 6/3/1 3/4/1
f 5/1/1 7/2/1 8/3/1 6/4/1
f 7/1/1 9/2/1 10/3/1 8/4/1
f 9/1/1 11/2/1 12/3/1 10/4/1
f 11/1/1 13/2/1 14/3/1 12/4/1
f 13/1/1 15/2/1 16/3/1 14/4/1
f 15/1/1 17/2/1 18/3/1 16/4/1
f 17/1/1 19/2/1 20/3/1 18/4/1
f 19/1/1 21/2/1 22/3/1 20/4/1
f 21/1/1 23/2/1 24/3/1 22/4/1
f 23/1/1 25/2/1 26/3/1 24/4/1
f 25/1/1 27/2/1 28/3/1 26/4/1
f 27/1/1 29/2/1 30/3/1 28/4/1
f 29/1/1 31/2/1 32/3/1 30/4/1
f 33/1/1 34/2/1 2/3/1 1/4/1
f 34/1/1 35/2/1 5/3/1 2/4/1
f 35/1/1 36/2/1 7/3/1 5/4/1
f 36/1/1 37/2/1 9/3/1 7/4/1
f 37/1/1 38/2/1 11/3/1 9/4/1
f 38/1/1 39/2/1 13/3/1 11/4/1
f 39/1/1 40/2/1 15/3/1 13/4/1
f 40/1/1 41/2/1 17/3/1 15/4/1
f 41/1/1 42/2/1 19/3/1 17/4/1
f 42/1/1 43/2/1 21/3/1 19/4/1
f 43/1/1 44/2/1 23/3/1 21/4/1
f 44/1/1 45/2/1 25/3/1 23/4/1
f 45/1/1 46/2/1 27/3/1 25/4/1
f 46/1/1 47/2/1 29/3/1 27/4/1
f 47/1/1 48/2/1 31/3/1 29/4/1
f 49/1/1 50/2/1 34/3/1 33/4/1
f 50/1/1 51/2/1 35/3/1 34/4/1
f 51/1/1 52/2/1 36/3/1 35/4/1
f 52/1/1 53/2/1 37/3/1 36/4/1
f 53/1/1 54/2/1 38/3/1 37/4/1
f 54/1/1 55/2/1 39/3/1 38/4/1
f 55/1/1 56/2/1 40/3/1 39/4/1
f 56/1/1 57/2/1 41/3/1 40/4/1
f 57/1/1 58/2/1 42/3/1 41/4/1
f 58/1/1 59/2/1 43/3/1 42/4/1
f 59/1/1 60/2/1 44/3/1 43/4/1
f 60/1/1 61/2/1 45/3/1 44/4/1
f 61/1/1 62/2/1 46/3/1 45/4/1
f 62/1/1 63/2/1 47/3/1 46/4/1
f 63/1/1 64/2/1 48/3/1 47/4/1
f 65/1/1 66/2/1 50/3/1 49/4/1
f 66/1/1 67/2/1 51/3/1 50/4/1
f 67/1/1 68/2/1 52/3/1 51/4/1
f 68/1/1 69/2/1 53/3/1 52/4/1
f 69/1/1 70/2/1 54/3/1 53/4/1
f 70/1/1 71/2/1 55/3/1 54/4/1
f 71/1/1 72/2/1 56/3/1 55/4/1
f 72/1/1 73/2/1 57/3/1 56/4/1
f 73/1/1 74/2/1 58/3/1 57/4/1
f 74/1/1 75/2/1 59/3/1 58/4/1
f 75/1/1 76/2/1 60/3/1 59/4/1
f 76/1/1 77/2/1 61/3/1 60/4/1
f 77/1/1 78/2/1 62/3/1 61/4/1
f 78/1/1 79/2/1 63/3/1 62/4/1
f 79/1/1 80/2/1 64/3/1 63/4/1
f 81/1/1 82/2/1 66/3/1 65/4/1
f 82/1/1 83/2/1 67/3/1 66/4/1
f 83/1/1 84/2/1 68/3/1 67/4/1
f 84/1/1 85/2/1 69/3/1 68/4/1
f 85/1/1 86/2/1 70/3/1 69/4/1
f 86/1/1 87/2/1 71/3/1 70/4/1
f 87/1/1 88/2/1 72/3/1 71/4/1
f 88/1/1 89/2/1 73/3/1 72/4/1
f 89/1/1 90/2/1 74/3/1 73/4/1
f 90/1/1 91/2/1 75/3/1 74/4/1
f 91/1/1 92/2/1 76/3/1 75/4/1
f 92/1/1 93/2/1 77/3/1 76/4/1
f 93/1/1 94/2/1 78/3/1 77/4/1
f 94/1/1 95/2/1 79/3/1 78/4/1
f 95/1/1 96/2/1 80/3/1 79/4/1
f 97/1/1 98/2/1 82/3/1 81/4/1
f 98/1/1 99/2/1 83/3/1 82/4/1
f 99/1/1 100/2/1 84/3/1 83/4/1
f 100/1/1 101/2/1 85/3/1 84/4/1
f 101/1/1 102/2/1 86/3/1 85/4/1
f 102/1/1 103/2/1 87/3/1 86/4/1
f 103/1/1 104/2/1 88/3/1 87/4/1
f 104/1/1 105/2/1 89/3/1 88/4/1
f 105/1/1 106/2/1 90/3/1 89/4/1
f 106/1/1 107/2/1 91/3/1 90/4/1
f 107/1/1 108/2/1 92/3/1 91/4/1
f 108/1/1 109/2/1 93/3/1 92/4/1
f 109/1/1 110/2/1 94/3/1 93/4/1
f 110/1/1 111/2/1 95/3/1 94/4/1
f 111/1/1 112/2/1 96/3/1 95/4/1
f 113/1/1 114/2/1 98/3/1 97/4/1
f 114/1/1 115/2/1 99/3/1 98/4/1
f 115/1/1 116/2/1 100/3/1 99/4/1
f 116/1/1 117/2/1 101/3/1 100/4/1
f 117/1/1 118/2/1 102/3/1 101/4/1
f 118/1/1 119/2/1 103/3/1 102/4/1
f 119/1/1 120/2/1 104/3/1 103/4/1
f 120/1/1 121/2/1 105/3/1 104/4/1
f 121/1/1 122/2/1 106/3/1 105/4/1
f 122/1/1 123/2/1 107/3/1 106/4/1
f 123/1/1 124/2/1 108/3/1 107/4/1
f 124/1/1 125/2/1 109/3/1 108/4/1
f 125/1/1 126/2/1 110/3/1 109/4/1
f 126/1/1 127/2/1 111/3/1 110/4/1
f 127/1/1 128/2/1 112/3/1 111/4/1
f 129/1/1 130/2/1 114/3/1 113/4/1
f 130/1/1 131/2/1 115/3/1 114/4/1
f 131/1/1 132/2/1 116/3/1 115/4/1
f 132/1/1 133/2/1 117/3/1 116/4/1
f 133/1/1 134/2/1 118/3/1 117/4/1
f 134/1/1 135/2/1 119/3/1 118/4/1
f 135/1/1 136/2/1 120/3/1 119/4/1
f 136/1/1 137/2/1 121/3/1 120/4/1
f 137/1/1 138/2/1 122/3/1 121/4/1
f 138/1/1 139/2/1 123/3/1 122/4/1
f 139/1/1 140/2/1 124/3/1 123/4/1
f 140/1/1 141/2/1 125/3/1 124/4/1
f 141/1/1 142/2/1 126/3/1 125/4/1
f 142/1/1 143/2/1 127/3/1 126/4/1
f 143/1/1 144/2/1 128/3/1 127/4/1
f 145/1/1 146/2/1 130/3/1 129/4/1
f 146/1/1 147/2/1 131/3/1 130/4/1
f 147/1/1 148/2/1 132/3/1 131/4/1
f 148/1/1 149/2/1 133/3/1 132/4/1
f 149/1/1 150/2/1 134/3/1 133/4/1
f 150/1/1 151/2/1 135/3/1 134/4/1
f 151/1/1 152/2/1 136/3/1 135/4/1
f 152/1/1 153/2/1 137/3/1 136/4/1
f 153/1/1 154/2/1 138/3/1 137/4/1
f 154/1/1 155/2/1 139/3/1 138/4/1
f 155/1/1 156/2/1 140/3/1 139/4/1
f 156/1/1 157/2/1 141/3/1 140/4/1
f 157/1/1 158/2/1 142/3/1 141/4/1
f 158/1/1 159/2/1 143/3/1 142/4/1
f 159/1/1 160/2/1 144/3/1 143/4/1
f 161/1/1 162/2/1 146/3/1 145/4/1
f 162/1/1 163/2/1 147/3/1 146/4/1
f 163/1/1 164/2/1 148/3/1 147/4/1
f 164/1/1 165/2/1 149/3/1 148/4/1
f 165/1/1 166/2/1 150/3/1 149/4/1
f 166/1/1 167/2/1 151/3/1 150/4/1
f 167/1/1 168/2/1 152/3/1 151/4/1
f 168/1/1 169/2/1 153/3/1 152/4/1
f 169/1/1 170/2/1 154/3/1 153/4/1
f 170/1/1 171/2/1 155/3/1 154/4/1
f 171/1/1 172/2/1 156/3/1 155/4/1
f 172/1/1 173/2/1 157/3/1 156/4/1
f 173/1/1 174/2/1 158/3/1 157/4/1
f 174/1/1 175/2/1 159/3/1 158/4/1
f 175/1/1 176/2/1 160/3/1 159/4/1

g mesh_0002
f 1/5/1 2/6/1 3/7/1 4/8/1
f 2/9/1 5/10/1 6/11/1 3/12/1
f 5/13/1 7/14/1 8/15/1 6/16/1
f 7/17/1 9/18/1 10/19/1 8/20/1
f 9/9/1 11/10/1 12/11/1 10/12/1
f 13/21/1 15/22/1 16/23/1 14/24/1
f 15/25/1 17/26/1 18/27/1 16/28/1
f 19/29/1 21/30/1 22/31/1 20/32/1
f 21/33/1 23/34/1 24/35/1 22/36/1
f 23/37/1 25/38/1 26/39/1 24/40/1
f 25/29/1 27/30/1 28/31/1 26/32/1
f 27/5/1 29/6/1 30/7/1 28/8/1
f 29/5/1 31/6/1 32/7/1 30/8/1
f 33/41/1 34/42/1 2/43/1 1/44/1
f 34/45/1 35/46/1 5/47/1 2/48/1
f 35/49/1 36/50/1 7/51/1 5/52/1
f 36/53/1 37/54/1 9/55/1 7/56/1
f 37/45/1 38/46/1 11/47/1 9/48/1
f 39/57/1 40/58/1 15/59/1 13/60/1
f 40/61/1 41/62/1 17/63/1 15/64/1
f 42/65/1 43/66/1 21/67/1 19/68/1
f 43/69/1 44/70/1 23/71/1 21/72/1
f 44/73/1 45/74/1 25/75/1 23/76/1
f 45/65/1 46/66/1 27/67/1 25/68/1
f 46/41/1 47/42/1 29/43/1 27/44/1
f 47/41/1 48/42/1 31/43/1 29/44/1
f 65/77/1 66/78/1 50/79/1 49/80/1
f 67/81/1 68/82/1 52/83/1 51/84/1
f 68/85/1 69/86/1 53/87/1 52/88/1
f 79/89/1 80/90/1 64/91/1 63/92/1
f 83/93/1 84/94/1 68/95/1 67/96/1
f 84/97/1 85/98/1 69/99/1 68/100/1
f 87/101/1 88/102/1 72/103/1 71/104/1
f 88/105/1 89/106/1 73/107/1 72/108/1
f 103/109/1 104/110/1 88/111/1 87/112/1
f 104/113/1 105/114/1 89/115/1 88/116/1
f 119/117/1 120/118/1 104/119/1 103/120/1
f 120/121/1 121/122/1 105/123/1 104/124/1
f 129/125/1 130/126/1 114/127/1 113/128/1
f 130/129/1 131/130/1 115/131/1 114/132/1
f 131/133/1 132/134/1 116/135/1 115/136/1
f 145/137/1 146/138/1 130/139/1 129/140/1
f 146/141/1 147/142/1 131/143/1 130/144/1
f 147/145/1 148/146/1 132/147/1 131/148/1

g mesh_0003
f 11/149/1 13/150/1 14/151/1 12/152/1
f 17/153/1 19/154/1 20/155/1 18/156/1
f 55/157/1 56/158/1 40/159/1 39/160/1
f 56/157/1 57/158/1 41/159/1 40/160/1
f 92/161/1 93/162/1 77/163/1 76/164/1
f 93/165/1 94/166/1 78/167/1 77/168/1
f 107/169/1 108/170/1 92/171/1 91/172/1
f 108/173/1 109/174/1 93/175/1 92/176/1
f 109/177/1 110/178/1 94/179/1 93/180/1
f 114/167/1 115/168/1 99/165/1 98/166/1
f 115/163/1 116/164/1 100/161/1 99/162/1
f 123/181/1 124/182/1 108/183/1 107/184/1
f 124/185/1 125/186/1 109/187/1 108/188/1
f 125/189/1 126/190/1 110/191/1 109/192/1
f 140/193/1 141/194/1 125/195/1 124/196/1
f 141/197/1 142/198/1 126/199/1 125/200/1
f 143/201/1 144/202/1 128/203/1 127/204/1
f 156/205/1 157/206/1 141/207/1 140/208/1
f 157/209/1 158/210/1 142/211/1 141/212/1
f 159/213/1 160/214/1 144/215/1 143/216/1
f 175/201/1 176/202/1 160/203/1 159/204/1

g mesh_0004
f 150/217/1 151/218/1 135/219/1 134/220/1
f 151/217/1 152/218/1 136/219/1 135/220/1
f 152/221/1 153/222/1 137/223/1 136/224/1
f 153/221/1 154/222/1 138/223/1 137/224/1
f 166/217/1 167/218/1 151/219/1 150/220/1
f 167/217/1 168/218/1 152/219/1 151/220/1
f 168/221/1 169/222/1 153/223/1 152/224/1
f 169/221/1 170/222/1 154/223/1 153/224/1

g mesh_0005
f 92/161/1 93/162/1 77/163/1 76/164/1
f 93/165/1 94/166/1 78/167/1 77/168/1
f 109/177/1 110/178/1 94/179/1 93/180/1
f 125/189/1 126/190/1 110/191/1 109/192/1

g mesh_0006
f 1/225/1 2/226/1 3/227/1 4/228/1
f 2/225/1 5/226/1 6/227/1 3/228/1
f 5/225/1 7/226/1 8/227/1 6/228/1
f 7/225/1 9/226/1 10/227/1 8/228/1
f 9/225/1 11/226/1 12/227/1 10/228/1
f 11/225/1 13/226/1 14/227/1 12/228/1
f 13/225/1 15/226/1 16/227/1 14/228/1
f 15/225/1 17/226/1 18/227/1 16/228/1
f 17/225/1 19/226/1 20/227/1 18/228/1
f 19/225/1 21/226/1 22/227/1 20/228/1
f 21/225/1 23/226/1 24/227/1 22/228/1
f 23/225/1 25/226/1 26/227/1 24/228/1
f 25/225/1 27/226/1 28/227/1 26/228/1
f 27/225/1 29/226/1 30/227/1 28/228/1
f 29/225/1 31/226/1 32/227/1 30/228/1
f 33/225/1 34/226/1 2/227/1 1/228/1
f 34/225/1 35/226/1 5/227/1 2/228/1
f 35/225/1 36/226/1 7/227/1 5/228/1
f 36/225/1 37/226/1 9/227/1 7/228/1
f 37/225/1 38/226/1 11/227/1 9/228/1
f 42/225/1 43/226/1 21/227/1 19/228/1
f 43/225/1 44/226/1 23/227/1 21/228/1
f 44/225/1 45/226/1 25/227/1 23/228/1
f 45/225/1 46/226/1 27/227/1 25/228/1
f 46/225/1 47/226/1 29/227/1 27/228/1
f 47/225/1 48/226/1 31/227/1 29/228/1
f 49/225/1 50/226/1 34/227/1 33/228/1
f 55/225/1 56/226/1 40/227/1 39/228/1
f 56/225/1 57/226/1 41/227/1 40/228/1
f 63/225/1 64/226/1 48/227/1 47/228/1
f 65/225/1 66/226/1 50/227/1 49/228/1
f 67/225/1 68/226/1 52/227/1 51/228/1
f 68/225/1 69/226/1 53/227/1 52/228/1
f 79/225/1 80/226/1 64/227/1 63/228/1
f 81/225/1 82/226/1 66/227/1 65/228/1
f 83/225/1 84/226/1 68/227/1 67/228/1
f 84/225/1 85/226/1 69/227/1 68/228/1
f 87/225/1 88/226/1 72/227/1 71/228/1
f 88/225/1 89/226/1 73/227/1 72/228/1
f 92/225/1 93/226/1 77/227/1 76/228/1
f 93/225/1 94/226/1 78/227/1 77/228/1
f 95/225/1 96/226/1 80/227/1 79/228/1
f 97/225/1 98/226/1 82/227/1 81/228/1
f 103/225/1 104/226/1 88/227/1 87/228/1
f 104/225/1 105/226/1 89/227/1 88/228/1
f 107/225/1 108/226/1 92/227/1 91/228/1
f 108/225/1 109/226/1 93/227/1 92/228/1
f 109/225/1 110/226/1 94/227/1 93/228/1
f 111/225/1 112/226/1 96/227/1 95/228/1
f 113/225/1 114/226/1 98/227/1 97/228/1
f 114/225/1 115/226/1 99/227/1 98/228/1
f 115/225/1 116/226/1 100/227/1 99/228/1
f 119/225/1 120/226/1 104/227/1 103/228/1
f 120/225/1 121/226/1 105/227/1 104/228/1
f 123/225/1 124/226/1 108/227/1 107/228/1
f 124/225/1 125/226/1 109/227/1 108/228/1
f 125/225/1 126/226/1 110/227/1 109/228/1
f 127/225/1 128/226/1 112/227/1 111/228/1
f 129/225/1 130/226/1 114/227/1 113/228/1
f 130/225/1 131/226/1 115/227/1 114/228/1
f 131/225/1 132/226/1 116/227/1 115/228/1
f 140/225/1 141/226/1 125/227/1 124/228/1
f 141/225/1 142/226/1 126/227/1 125/228/1
f 143/225/1 144/226/1 128/227/1 127/228/1
f 145/225/1 146/226/1 130/227/1 129/228/1
f 146/225/1 147/226/1 131/227/1 130/228/1
f 147/225/1 148/226/1 132/227/1 131/228/1
f 156/225/1 157/226/1 141/227/1 140/228/1
f 157/225/1 158/226/1 142/227/1 141/228/1
f 159/225/1 160/226/1 144/227/1 143/228/1
f 161/225/1 162/226/1 146/227/1 145/228/1
f 162/225/1 163/226/1 147/227/1 146/228/1
f 163/225/1 164/226/1 148/227/1 147/228/1
f 164/225/1 165/226/1 149/227/1 148/228/1
f 165/225/1 166/226/1 150/227/1 149/228/1
f 170/225/1 171/226/1 155/227/1 154/228/1
f 171/225/1 172/226/1 156/227/1 155/228/1
f 172/225/1 173/226/1 157/227/1 156/228/1
f 173/225/1 174/226/1 158/227/1 157/228/1
f 174/225/1 175/226/1 159/227/1 158/228/1
f 175/225/1 176/226/1 160/227/1 159/228/1

